<?xml version="1.0" encoding="iso-8859-1"?>
<!-- Uploaded to: SVG Repo, www.svgrepo.com, Generator: SVG Repo Mixer Tools -->
<svg fill="#000000" height="800px" width="800px" version="1.1" id="Layer_1" xmlns="http://www.w3.org/2000/svg" xmlns:xlink="http://www.w3.org/1999/xlink" 
	 viewBox="0 0 512 512" xml:space="preserve">
<g>
	<g>
		<path d="M474.074,404.54v-0.001V290.764h25.283l-54.78-50.567h35.818c10.472,0,18.963-8.49,18.963-18.963
			c0-10.472-8.49-18.963-18.963-18.963H451.13c6.114-3.148,10.303-9.508,10.303-16.856c0-10.472-8.49-18.963-18.963-18.963h-77.783
			l-29.673-27.389l-29.673,27.389h-1.932c-3.195,0-6.201,0.799-8.842,2.193c-2.14-6.136-5.073-13.016-9.088-20.052
			c-11.745-20.577-34.973-46.113-78.935-50.906c-4.104-0.445-8.202-0.602-12.233-0.461c-2.925-2.782-6.084-5.38-9.453-7.771
			c-18.63-13.219-38.691-19.922-59.63-19.922c-41.69,0-71.594,27.103-72.846,28.257l-27.606,25.428l25.291,4.899
			C23.919,147.298,11.57,170.12,5.754,187.982c-8.484,26.051-5.196,47.046-4.792,49.354l4.81,27.563l23.819-14.679
			c19.367-11.935,39.89-17.988,60.996-17.988c9.668,0,19.442,1.206,29.529,3.652l-3.029,42.486l-12.839-1.502l4.967,61.305H98.682
			l13.169,65.839l-0.09,0.528H56.899v37.925H512V404.54H474.074z M335.016,190.676l67.342,62.163H267.672L335.016,190.676z
			 M195.957,404.54h-57.623l-0.148-0.53l13.169-65.839h-12.706l17.912-55.181l-11.653-1.364l15.174-30.181
			c11.243,6.242,20.919,13.644,29.09,22.246l-18.497,17.074h25.283V404.54z M190.64,225.742c0.456-9.572-5.112-18.802-14.518-22.525
			c-7.179-2.843-14.921-1.81-20.955,2.072c-1.741-6.961-6.676-13.015-13.857-15.858c-9.557-3.784-20.129-0.726-26.311,6.826
			c-8.249-1.292-16.401-1.954-24.414-1.954c-17.003,0.001-33.633,2.882-49.731,8.599c0.43-1.54,0.92-3.112,1.477-4.71
			c8.17-23.426,26.798-41.456,55.367-53.588l27.975-11.879l-22.969-19.904c-0.31-0.268-0.645-0.555-1.004-0.861
			c6.858-2.586,14.862-4.502,23.529-4.502c12.916,0,25.594,4.349,37.681,12.926c3.527,2.502,6.595,5.363,9.118,8.503l6.972,8.668
			l10.969-1.856c3.981-0.674,8.168-0.779,12.467-0.308c22.105,2.408,38.761,12.826,49.502,30.963
			c0.662,1.121,1.287,2.24,1.871,3.354c-0.468-0.01-0.908-0.018-1.315-0.023l-30.393-0.355l13.042,27.454
			c4.217,8.876,7.288,17.531,9.227,25.947l-27.346,25.243C209.241,239.724,200.442,232.306,190.64,225.742z M436.149,404.539
			h-82.171v-75.85h-37.925v75.85h-82.171V290.764h202.267V404.539z"/>
	</g>
</g>
</svg>